<svg width="214" height="26" viewBox="0 0 214 26" fill="none" xmlns="http://www.w3.org/2000/svg">
<path d="M7.90591 25.0542H0.119141V0.837891H8.15264C10.5096 0.837891 12.5336 1.32277 14.2249 2.29236C15.9161 3.25403 17.2121 4.63754 18.1124 6.44266C19.0204 8.24008 19.4747 10.3959 19.4747 12.9107C19.4747 15.4331 19.0171 17.601 18.1008 19.414C17.1923 21.227 15.8769 22.6222 14.1542 23.5997C12.4315 24.5693 10.3489 25.0542 7.90591 25.0542ZM3.74835 21.8616H7.70665C9.53864 21.8616 11.0615 21.5147 12.2753 20.8211C13.4885 20.1195 14.3971 19.1064 14.9998 17.7823C15.6026 16.4499 15.9045 14.8261 15.9045 12.9107C15.9045 11.0108 15.6026 9.3988 14.9998 8.0744C14.4048 6.75 13.5161 5.74506 12.3338 5.05915C11.1515 4.37341 9.68326 4.03045 7.92965 4.03045H3.74835V21.8616ZM29.7855 25.0542H25.9333L34.5893 0.837891H38.7826L47.4386 25.0542H43.5859L36.7856 5.23664H36.5979L29.7855 25.0542ZM30.4319 15.5711H42.9285V18.6455H30.4319V15.5711ZM51.563 0.837891H55.6851L61.9687 11.8464H62.2271L68.5107 0.837891H72.6328L63.9067 15.5474V25.0542H60.2891V15.5474L51.563 0.837891ZM88.8078 25.0542H81.0206V0.837891H89.0545C91.4109 0.837891 93.4355 1.32277 95.1268 2.29236C96.818 3.25403 98.1135 4.63754 99.0143 6.44266C99.9223 8.24008 100.377 10.3959 100.377 12.9107C100.377 15.4331 99.9184 17.601 99.0021 19.414C98.0942 21.227 96.7788 22.6222 95.0561 23.5997C93.3334 24.5693 91.2508 25.0542 88.8078 25.0542ZM84.6498 21.8616H88.608C90.44 21.8616 91.9634 21.5147 93.1767 20.8211C94.3904 20.1195 95.299 19.1064 95.9017 17.7823C96.5045 16.4499 96.8058 14.8261 96.8058 12.9107C96.8058 11.0108 96.5045 9.3988 95.9017 8.0744C95.3067 6.75 94.418 5.74506 93.2357 5.05915C92.0534 4.37341 90.5851 4.03045 88.831 4.03045H84.6498V21.8616ZM109.851 25.0542V0.837891H118.424C120.288 0.837891 121.834 1.16107 123.064 1.80743C124.301 2.45406 125.225 3.3487 125.836 4.49162C126.446 5.62685 126.751 6.93939 126.751 8.42926C126.751 9.91121 126.442 11.2158 125.824 12.3429C125.213 13.4623 124.289 14.3335 123.052 14.9561C121.822 15.579 120.276 15.8903 118.413 15.8903H111.918V12.745H118.084C119.258 12.745 120.213 12.5756 120.95 12.2366C121.693 11.8976 122.237 11.405 122.582 10.7586C122.927 10.1122 123.099 9.33575 123.099 8.42926C123.099 7.51479 122.922 6.72252 122.57 6.05245C122.226 5.38233 121.682 4.86998 120.938 4.51533C120.202 4.1526 119.235 3.97135 118.037 3.97135H113.48V25.0542H109.851ZM121.725 14.1285L127.668 25.0542H123.533L117.708 14.1285H121.725ZM136.129 25.0542V0.837891H151.209V3.9832H139.758V11.3617H150.423V14.495H139.758V21.9088H151.35V25.0542H136.129ZM163.05 25.0542H159.197L167.855 0.837891H172.046L180.703 25.0542H176.851L170.05 5.23664H169.861L163.05 25.0542ZM163.695 15.5711H176.193V18.6455H163.695V15.5711ZM189.137 0.837891H193.542L201.199 19.6623H201.482L209.139 0.837891H213.544V25.0542H210.09V7.53041H209.866L202.774 25.0188H199.907L192.812 7.51878H192.589V25.0542H189.137V0.837891Z" fill="white"/>
</svg>
